<?xml version="1.0" encoding="UTF-8" standalone="no"?>
<svg
   width="133.57445"
   height="71.613129"
   viewBox="0 0 133.57445 71.613129"
   fill="none"
   version="1.1"
   id="svg1"
   sodipodi:docname="tu.svg"
   inkscape:version="1.4.3 (0d15f75, 2025-12-25)"
   xmlns:inkscape="http://www.inkscape.org/namespaces/inkscape"
   xmlns:sodipodi="http://sodipodi.sourceforge.net/DTD/sodipodi-0.dtd"
   xmlns="http://www.w3.org/2000/svg"
   xmlns:svg="http://www.w3.org/2000/svg">
  <defs
     id="defs1" />
  <sodipodi:namedview
     id="namedview1"
     pagecolor="#ffffff"
     bordercolor="#000000"
     borderopacity="0.25"
     inkscape:showpageshadow="2"
     inkscape:pageopacity="0.0"
     inkscape:pagecheckerboard="0"
     inkscape:deskcolor="#d1d1d1"
     inkscape:zoom="3.2455098"
     inkscape:cx="65.321017"
     inkscape:cy="43.290579"
     inkscape:window-width="1147"
     inkscape:window-height="729"
     inkscape:window-x="52"
     inkscape:window-y="0"
     inkscape:window-maximized="0"
     inkscape:current-layer="svg1" />
  <path
     id="path5"
     style="fill:#ffffff;fill-opacity:1"
     d="m 124.1092,71.611229 c 2.11426,-0.064 4.29081,-0.25799 6.26243,-1.04887 2.29102,-1.32412 3.82631,-4.226652 2.95573,-6.831584 -0.82491,-2.012373 -2.59342,-3.906094 -4.87653,-4.023828 -2.26369,0.229522 -4.56623,0.428116 -6.81038,-0.08011 -3.72525,-0.75019 -7.21414,-2.762669 -10.21484,-4.857407 -4.30647,-3.013696 -8.33241,-6.458105 -12.814455,-9.199219 1.686345,-1.678529 2.398005,-4.526216 1.091877,-6.63509 -1.245508,-2.368564 -3.831983,-3.446577 -6.177063,-4.40627 -2.915693,-1.390036 -6.339861,-1.11889 -9.336689,-0.134421 -1.098797,-4.491884 -3.892319,-8.300747 -5.384766,-12.640625 -0.517967,-1.412495 -0.719182,-2.997093 -0.09961,-4.414063 0.752199,-2.218459 1.726654,-4.615857 1.07717,-6.977418 -0.250244,-0.9237125 -1.091708,-1.6034105 -1.03373,-2.6175875 -0.199219,-1.685565 -1.24984,-3.069235 -2.417662,-4.229126 -1.662557,-1.796093 -3.917445,-3.07706696 -6.379684,-3.30086896 -2.64928,-0.335364 -5.389585,-0.315636 -7.990062,0.330343 -2.55248,0.68013296 -4.585073,2.56248396 -6.127126,4.63254796 -0.726054,0.993852 -0.993749,2.210414 -1.146484,3.402344 -0.414642,0.810395 -0.976996,1.5727785 -1.056641,2.5195315 -0.400705,2.735902 1.164884,5.204295 1.621982,7.820134 0.102877,1.435239 -0.501756,2.815381 -0.965676,4.147029 -1.550569,3.809987 -3.937421,7.284924 -4.898493,11.327759 -3.23838,-1.094194 -6.944152,-1.210972 -10.029542,0.419211 -2.005772,0.852375 -4.365021,1.942573 -5.448015,4.05688 -1.365507,2.11052 -0.645937,5.008809 1.051776,6.705549 -6.039463,3.636346 -11.137423,8.670735 -17.375673,11.994598 -3.52597,1.851264 -7.6040699,2.846424 -11.5778299,2.190852 -2.2755,-0.381653 -4.377183,1.225812 -5.37091302,3.169109 -1.3654,2.222037 -0.38874,5.22579 1.49776002,6.83385 1.007043,0.99892 2.406833,1.31261 3.760063,1.5162 5.5177299,0.90828 11.1694399,-0.18093 16.3922699,-1.99573 8.03404,-2.914447 14.868367,-8.193799 22.373364,-12.148451 2.970983,-1.127032 6.485198,-1.540438 9.414191,-0.08278 1.320766,0.808801 2.870163,1.252212 4.419972,1.075089 1.345537,0.466772 2.872189,0.327267 4.160156,-0.263672 1.369608,0.243564 2.78377,0.601047 4.169922,0.259766 1.360474,0.3267 2.762593,0.02991 4.074219,-0.273438 1.309052,0.659262 2.863405,0.689211 4.25,0.28711 1.689724,0.163104 3.348207,-0.424184 4.766915,-1.298253 2.84206,-1.164132 6.122603,-0.816505 8.921525,0.295969 3.762069,1.854779 7.236647,4.228672 10.852327,6.344881 5.613705,3.394485 11.595415,6.446389 18.123595,7.561219 2.07435,0.38372 4.18386,0.59318 6.29462,0.56884 z" />
  <path
     d="m 5.1412249,67.02061 c 4.516,1.22746 9.9840001,0.316625 14.3810001,-1.03034 8.399,-2.69442 15.569296,-8.3994 23.373996,-12.4798 4.1209,-1.7431 9.7868,-2.0997 13.5896,0.2776 0.9109,0.6466 2.5616,0.1847 2.5616,0.1847 0.528,0.3957 1.1199,0.5466 1.836,0.2909 1.9016,-1.3874 3.8828,0.7523 5.9021,-0.3571 2.0197,1.1094 4.0004,-1.0303 5.9021,0.3571 0.7165,0.2557 1.3079,0.1048 1.8359,-0.2909 0,0 1.6517,0.4619 2.5625,-0.1847 3.8024,-2.3773 9.4678,-2.0207 13.5883,-0.2776 7.8056,4.0804 14.975199,9.78538 23.374099,12.4798 4.3975,1.346965 9.86537,2.2578 14.38145,1.03034 0.59421,-0.39614 1.2684,-1.10985 1.10985,-1.98117 -0.3171,-0.51517 -0.63467,-1.22842 -1.30791,-1.34745 -16.16459,2.41683 -24.87959,-13.62822 -38.429289,-17.86722 -0.0262,-0.1719 0.7661,-0.8318 1.625,-1.2941 1.9145,-1.057 4.7541,-0.6471 4.9517,-3.262 -0.5147,-1.625 -2.4954,-2.2192 -3.9218,-2.8525 -3.3677,-1.903 -7.4095,-0.318 -10.4592,1.2275 -0.3561,0.3571 -0.9508,0.159 -1.2274,-0.1981 0.2376,-7.33 -5.3488,-12.2031 -6.3787,-19.017 -0.5947,-3.1696 1.3865,-5.506 1.6241,-8.478 0.0262,-1.0965 -0.8318,-0.3704 -1.2942,-4.0013998 -0.1985,-0.6603 -1.8492,-2.5096 -3.3414,-3.2881 -1.3775,-0.5428 -2.9739,-0.7009 -4.5951,-0.6585 -1.6208,-0.0424 -3.2172,0.1157 -4.5947,0.6585 -1.4922,0.7785 -3.1434,2.6278 -3.34,3.2881 -0.4638,3.6309998 -1.3218,2.9048998 -1.2956,4.0013998 0.2381,2.972 2.2188,5.3084 1.6246,8.478 -1.0304,6.8139 -6.6163,11.687 -6.3782,19.017 -0.2781,0.3571 -0.8728,0.5552 -1.2289,0.1981 -3.0496,-1.5455 -7.0905,-3.1305 -10.4592,-1.2275 -1.426,0.6333 -3.4067,1.2275 -3.9218,2.8525 0.1985,2.6149 3.0381,2.205 4.9517,3.262 0.8594,0.4623 1.6517,1.1222 1.626,1.2941 -13.550196,4.239 -22.266196,20.28405 -38.4301961,17.86722 -0.673,0.11903 -0.99,0.83228 -1.307,1.34745 -0.153,0.87036 0.519,1.58408 1.114,1.980219"
     fill="#c15d26"
     id="path1"
     style="fill:#c15d26;fill-opacity:1" />
</svg>
